<?xml version="1.0" encoding="UTF-8" standalone="no"?>
<svg
   xmlns:osb="http://www.openswatchbook.org/uri/2009/osb"
   xmlns:dc="http://purl.org/dc/elements/1.1/"
   xmlns:cc="http://creativecommons.org/ns#"
   xmlns:rdf="http://www.w3.org/1999/02/22-rdf-syntax-ns#"
   xmlns:svg="http://www.w3.org/2000/svg"
   xmlns="http://www.w3.org/2000/svg"
   xmlns:xlink="http://www.w3.org/1999/xlink"
   xmlns:sodipodi="http://sodipodi.sourceforge.net/DTD/sodipodi-0.dtd"
   xmlns:inkscape="http://www.inkscape.org/namespaces/inkscape"
   width="204.01mm"
   height="204.01mm"
   version="1.1"
   viewBox="0 0 722.85714 722.85713"
   id="svg3133"
   inkscape:version="0.48.5 r10040"
   sodipodi:docname="logo.svg"
   inkscape:export-filename="/home/user/repos/continetalSecurity/www/projects/mainpage/content/img/logo.png"
   inkscape:export-xdpi="29.879999"
   inkscape:export-ydpi="29.879999">
  <metadata
     id="metadata3241">
    <rdf:RDF>
      <cc:Work
         rdf:about="">
        <dc:format>image/svg+xml</dc:format>
        <dc:type
           rdf:resource="http://purl.org/dc/dcmitype/StillImage" />
        <dc:title />
      </cc:Work>
    </rdf:RDF>
  </metadata>
  <defs
     id="defs3239">
    <linearGradient
       inkscape:collect="always"
       id="linearGradient5735">
      <stop
         style="stop-color:#483737;stop-opacity:1;"
         offset="0"
         id="stop5737" />
      <stop
         style="stop-color:#483737;stop-opacity:0;"
         offset="1"
         id="stop5739" />
    </linearGradient>
    <linearGradient
       id="linearGradient5525">
      <stop
         id="stop5545"
         offset="0"
         style="stop-color:#786521;stop-opacity:0.49803922;" />
      <stop
         style="stop-color:#786521;stop-opacity:0;"
         offset="1"
         id="stop5529" />
    </linearGradient>
    <linearGradient
       id="linearGradient5513">
      <stop
         style="stop-color:#786521;stop-opacity:1;"
         offset="0"
         id="stop5515" />
      <stop
         id="stop5523"
         offset="0.5"
         style="stop-color:#786521;stop-opacity:0.49803922;" />
      <stop
         style="stop-color:#786521;stop-opacity:0;"
         offset="1"
         id="stop5517" />
    </linearGradient>
    <linearGradient
       id="linearGradient5499"
       osb:paint="gradient">
      <stop
         style="stop-color:#786521;stop-opacity:1;"
         offset="0"
         id="stop5501" />
      <stop
         style="stop-color:#786521;stop-opacity:0;"
         offset="1"
         id="stop5503" />
    </linearGradient>
    <linearGradient
       inkscape:collect="always"
       id="linearGradient4035">
      <stop
         style="stop-color:#000000;stop-opacity:1;"
         offset="0"
         id="stop4037" />
      <stop
         style="stop-color:#000000;stop-opacity:0;"
         offset="1"
         id="stop4039" />
    </linearGradient>
    <linearGradient
       inkscape:collect="always"
       xlink:href="#linearGradient4035"
       id="linearGradient4041"
       x1="17.143"
       y1="430.93499"
       x2="740.00299"
       y2="430.93499"
       gradientUnits="userSpaceOnUse" />
    <linearGradient
       inkscape:collect="always"
       xlink:href="#linearGradient5735"
       id="linearGradient5741"
       x1="19.642946"
       y1="430.93499"
       x2="743.50293"
       y2="430.93499"
       gradientUnits="userSpaceOnUse"
       gradientTransform="translate(-3.9999285,-0.99998214)" />
    <linearGradient
       inkscape:collect="always"
       xlink:href="#linearGradient4035"
       id="linearGradient3062"
       gradientUnits="userSpaceOnUse"
       x1="17.143"
       y1="430.93499"
       x2="740.00299"
       y2="430.93499"
       gradientTransform="scale(1,1.0000041)" />
    <linearGradient
       inkscape:collect="always"
       xlink:href="#linearGradient4035"
       id="linearGradient3064"
       gradientUnits="userSpaceOnUse"
       x1="17.143"
       y1="430.93499"
       x2="740.00299"
       y2="430.93499"
       gradientTransform="scale(1,1.0000041)" />
    <linearGradient
       inkscape:collect="always"
       xlink:href="#linearGradient4035"
       id="linearGradient3066"
       gradientUnits="userSpaceOnUse"
       x1="17.143"
       y1="430.93499"
       x2="740.00299"
       y2="430.93499" />
    <linearGradient
       inkscape:collect="always"
       xlink:href="#linearGradient4035"
       id="linearGradient3068"
       gradientUnits="userSpaceOnUse"
       x1="17.143"
       y1="430.93499"
       x2="740.00299"
       y2="430.93499" />
    <linearGradient
       inkscape:collect="always"
       xlink:href="#linearGradient4035"
       id="linearGradient3070"
       gradientUnits="userSpaceOnUse"
       x1="17.143"
       y1="430.93499"
       x2="740.00299"
       y2="430.93499" />
    <linearGradient
       inkscape:collect="always"
       xlink:href="#linearGradient4035"
       id="linearGradient3072"
       gradientUnits="userSpaceOnUse"
       x1="17.143"
       y1="430.93499"
       x2="740.00299"
       y2="430.93499" />
    <linearGradient
       inkscape:collect="always"
       xlink:href="#linearGradient4035"
       id="linearGradient3074"
       gradientUnits="userSpaceOnUse"
       x1="17.143"
       y1="430.93499"
       x2="740.00299"
       y2="430.93499" />
    <linearGradient
       inkscape:collect="always"
       xlink:href="#linearGradient4035"
       id="linearGradient3076"
       gradientUnits="userSpaceOnUse"
       x1="17.143"
       y1="430.93499"
       x2="740.00299"
       y2="430.93499" />
    <linearGradient
       inkscape:collect="always"
       xlink:href="#linearGradient4035"
       id="linearGradient3078"
       gradientUnits="userSpaceOnUse"
       x1="17.143"
       y1="430.93499"
       x2="740.00299"
       y2="430.93499" />
    <linearGradient
       inkscape:collect="always"
       xlink:href="#linearGradient4035"
       id="linearGradient3080"
       gradientUnits="userSpaceOnUse"
       x1="17.143"
       y1="430.93499"
       x2="740.00299"
       y2="430.93499" />
    <linearGradient
       inkscape:collect="always"
       xlink:href="#linearGradient4035"
       id="linearGradient3082"
       gradientUnits="userSpaceOnUse"
       x1="17.143"
       y1="430.93499"
       x2="740.00299"
       y2="430.93499" />
    <linearGradient
       inkscape:collect="always"
       xlink:href="#linearGradient4035"
       id="linearGradient3084"
       gradientUnits="userSpaceOnUse"
       x1="17.143"
       y1="430.93499"
       x2="740.00299"
       y2="430.93499" />
    <linearGradient
       inkscape:collect="always"
       xlink:href="#linearGradient4035"
       id="linearGradient3086"
       gradientUnits="userSpaceOnUse"
       x1="17.143"
       y1="430.93499"
       x2="740.00299"
       y2="430.93499" />
    <linearGradient
       inkscape:collect="always"
       xlink:href="#linearGradient4035"
       id="linearGradient3088"
       gradientUnits="userSpaceOnUse"
       x1="17.143"
       y1="430.93499"
       x2="740.00299"
       y2="430.93499" />
    <linearGradient
       inkscape:collect="always"
       xlink:href="#linearGradient4035"
       id="linearGradient3090"
       gradientUnits="userSpaceOnUse"
       x1="17.143"
       y1="430.93499"
       x2="740.00299"
       y2="430.93499" />
    <linearGradient
       inkscape:collect="always"
       xlink:href="#linearGradient4035"
       id="linearGradient3092"
       gradientUnits="userSpaceOnUse"
       x1="17.143"
       y1="430.93499"
       x2="740.00299"
       y2="430.93499" />
    <linearGradient
       inkscape:collect="always"
       xlink:href="#linearGradient4035"
       id="linearGradient3094"
       gradientUnits="userSpaceOnUse"
       x1="17.143"
       y1="430.93499"
       x2="740.00299"
       y2="430.93499" />
    <linearGradient
       inkscape:collect="always"
       xlink:href="#linearGradient4035"
       id="linearGradient3096"
       gradientUnits="userSpaceOnUse"
       x1="17.143"
       y1="430.93499"
       x2="740.00299"
       y2="430.93499" />
    <linearGradient
       inkscape:collect="always"
       xlink:href="#linearGradient4035"
       id="linearGradient3098"
       gradientUnits="userSpaceOnUse"
       x1="17.143"
       y1="430.93499"
       x2="740.00299"
       y2="430.93499" />
    <linearGradient
       inkscape:collect="always"
       xlink:href="#linearGradient4035"
       id="linearGradient3100"
       gradientUnits="userSpaceOnUse"
       x1="17.143"
       y1="430.93499"
       x2="740.00299"
       y2="430.93499" />
    <linearGradient
       inkscape:collect="always"
       xlink:href="#linearGradient4035"
       id="linearGradient3102"
       gradientUnits="userSpaceOnUse"
       x1="17.143"
       y1="430.93499"
       x2="740.00299"
       y2="430.93499" />
    <linearGradient
       inkscape:collect="always"
       xlink:href="#linearGradient4035"
       id="linearGradient3104"
       gradientUnits="userSpaceOnUse"
       x1="17.143"
       y1="430.93499"
       x2="740.00299"
       y2="430.93499" />
    <linearGradient
       inkscape:collect="always"
       xlink:href="#linearGradient4035"
       id="linearGradient3106"
       gradientUnits="userSpaceOnUse"
       x1="17.143"
       y1="430.93499"
       x2="740.00299"
       y2="430.93499" />
    <linearGradient
       inkscape:collect="always"
       xlink:href="#linearGradient4035"
       id="linearGradient3108"
       gradientUnits="userSpaceOnUse"
       x1="17.143"
       y1="430.93499"
       x2="740.00299"
       y2="430.93499" />
    <linearGradient
       inkscape:collect="always"
       xlink:href="#linearGradient4035"
       id="linearGradient3110"
       gradientUnits="userSpaceOnUse"
       x1="17.143"
       y1="430.93499"
       x2="740.00299"
       y2="430.93499" />
    <linearGradient
       inkscape:collect="always"
       xlink:href="#linearGradient4035"
       id="linearGradient3112"
       gradientUnits="userSpaceOnUse"
       x1="17.143"
       y1="430.93499"
       x2="740.00299"
       y2="430.93499" />
    <linearGradient
       inkscape:collect="always"
       xlink:href="#linearGradient4035"
       id="linearGradient3114"
       gradientUnits="userSpaceOnUse"
       x1="17.143"
       y1="430.93499"
       x2="740.00299"
       y2="430.93499" />
    <linearGradient
       inkscape:collect="always"
       xlink:href="#linearGradient4035"
       id="linearGradient3116"
       gradientUnits="userSpaceOnUse"
       x1="17.143"
       y1="430.93499"
       x2="740.00299"
       y2="430.93499" />
    <linearGradient
       inkscape:collect="always"
       xlink:href="#linearGradient4035"
       id="linearGradient3118"
       gradientUnits="userSpaceOnUse"
       x1="17.143"
       y1="430.93499"
       x2="740.00299"
       y2="430.93499" />
    <linearGradient
       inkscape:collect="always"
       xlink:href="#linearGradient4035"
       id="linearGradient3120"
       gradientUnits="userSpaceOnUse"
       x1="17.143"
       y1="430.93499"
       x2="740.00299"
       y2="430.93499" />
    <linearGradient
       inkscape:collect="always"
       xlink:href="#linearGradient4035"
       id="linearGradient3122"
       gradientUnits="userSpaceOnUse"
       x1="17.143"
       y1="430.93499"
       x2="740.00299"
       y2="430.93499" />
    <linearGradient
       inkscape:collect="always"
       xlink:href="#linearGradient4035"
       id="linearGradient3124"
       gradientUnits="userSpaceOnUse"
       x1="17.143"
       y1="430.93499"
       x2="740.00299"
       y2="430.93499" />
    <linearGradient
       inkscape:collect="always"
       xlink:href="#linearGradient4035"
       id="linearGradient3126"
       gradientUnits="userSpaceOnUse"
       x1="17.143"
       y1="430.93499"
       x2="740.00299"
       y2="430.93499"
       gradientTransform="scale(1.0000032,1)" />
    <linearGradient
       inkscape:collect="always"
       xlink:href="#linearGradient4035"
       id="linearGradient3128"
       gradientUnits="userSpaceOnUse"
       x1="17.143"
       y1="430.93499"
       x2="740.00299"
       y2="430.93499" />
    <linearGradient
       inkscape:collect="always"
       xlink:href="#linearGradient4035"
       id="linearGradient3130"
       gradientUnits="userSpaceOnUse"
       x1="17.143"
       y1="430.93499"
       x2="740.00299"
       y2="430.93499" />
    <linearGradient
       inkscape:collect="always"
       xlink:href="#linearGradient4035"
       id="linearGradient3132"
       gradientUnits="userSpaceOnUse"
       x1="17.143"
       y1="430.93499"
       x2="740.00299"
       y2="430.93499"
       gradientTransform="scale(1,1.0000027)" />
    <linearGradient
       inkscape:collect="always"
       xlink:href="#linearGradient4035"
       id="linearGradient3134"
       gradientUnits="userSpaceOnUse"
       x1="17.143"
       y1="430.93499"
       x2="740.00299"
       y2="430.93499"
       gradientTransform="scale(0.99997903,0.99997903)" />
    <linearGradient
       inkscape:collect="always"
       xlink:href="#linearGradient4035"
       id="linearGradient3136"
       gradientUnits="userSpaceOnUse"
       x1="17.143"
       y1="430.93499"
       x2="740.00299"
       y2="430.93499" />
    <linearGradient
       inkscape:collect="always"
       xlink:href="#linearGradient4035"
       id="linearGradient3138"
       gradientUnits="userSpaceOnUse"
       x1="17.143"
       y1="430.93499"
       x2="740.00299"
       y2="430.93499" />
    <linearGradient
       inkscape:collect="always"
       xlink:href="#linearGradient4035"
       id="linearGradient3140"
       gradientUnits="userSpaceOnUse"
       x1="17.143"
       y1="430.93499"
       x2="740.00299"
       y2="430.93499" />
    <linearGradient
       inkscape:collect="always"
       xlink:href="#linearGradient4035"
       id="linearGradient3142"
       gradientUnits="userSpaceOnUse"
       x1="17.143"
       y1="430.93499"
       x2="740.00299"
       y2="430.93499" />
    <linearGradient
       inkscape:collect="always"
       xlink:href="#linearGradient4035"
       id="linearGradient3144"
       gradientUnits="userSpaceOnUse"
       x1="17.143"
       y1="430.93499"
       x2="740.00299"
       y2="430.93499" />
    <linearGradient
       inkscape:collect="always"
       xlink:href="#linearGradient4035"
       id="linearGradient3146"
       gradientUnits="userSpaceOnUse"
       x1="17.143"
       y1="430.93499"
       x2="740.00299"
       y2="430.93499" />
    <linearGradient
       inkscape:collect="always"
       xlink:href="#linearGradient4035"
       id="linearGradient3148"
       gradientUnits="userSpaceOnUse"
       x1="17.143"
       y1="430.93499"
       x2="740.00299"
       y2="430.93499" />
    <linearGradient
       inkscape:collect="always"
       xlink:href="#linearGradient4035"
       id="linearGradient3150"
       gradientUnits="userSpaceOnUse"
       x1="17.143"
       y1="430.93499"
       x2="740.00299"
       y2="430.93499" />
    <linearGradient
       inkscape:collect="always"
       xlink:href="#linearGradient4035"
       id="linearGradient3152"
       gradientUnits="userSpaceOnUse"
       x1="17.143"
       y1="430.93499"
       x2="740.00299"
       y2="430.93499"
       gradientTransform="scale(1.0000047,1.0000047)" />
    <linearGradient
       inkscape:collect="always"
       xlink:href="#linearGradient4035"
       id="linearGradient3154"
       gradientUnits="userSpaceOnUse"
       x1="17.143"
       y1="430.93499"
       x2="740.00299"
       y2="430.93499"
       gradientTransform="matrix(0.98298,-0.18373,0,1,3.5751492e-8,-3.5751453e-8)" />
  </defs>
  <sodipodi:namedview
     pagecolor="#ffffff"
     bordercolor="#666666"
     borderopacity="1"
     objecttolerance="10"
     gridtolerance="10"
     guidetolerance="10"
     inkscape:pageopacity="0"
     inkscape:pageshadow="2"
     inkscape:window-width="1596"
     inkscape:window-height="861"
     id="namedview3237"
     showgrid="false"
     inkscape:zoom="1"
     inkscape:cx="184.93503"
     inkscape:cy="248.53857"
     inkscape:window-x="2"
     inkscape:window-y="18"
     inkscape:window-maximized="0"
     inkscape:current-layer="g3135" />
  <g
     transform="translate(-17.143,-69.505)"
     id="g3135"
     style="display:inline;stroke:url(#linearGradient4041)">
    <rect
       x="16.143017"
       y="68.50502"
       width="722.85999"
       height="722.85999"
       ry="3.0648999"
       id="rect3137"
       style="fill:url(#linearGradient5741);fill-opacity:1;fill-rule:evenodd;stroke:none" />
    <rect
       transform="matrix(1,0,-0.1957892,0.98064601,0,0)"
       x="290.87"
       y="525.51215"
       width="23.104"
       height="43.779179"
       ry="1.3462055"
       id="rect3139"
       style="fill:#0097a7;fill-rule:evenodd;stroke:url(#linearGradient3062);stroke-width:1.00000203" />
    <rect
       transform="matrix(1,0,-0.1957892,0.98064601,0,0)"
       x="293.45999"
       y="525.51215"
       width="23.104"
       height="43.779179"
       ry="1.3462055"
       id="rect3141"
       style="fill:#00acc1;fill-rule:evenodd;stroke:url(#linearGradient3064);stroke-width:1.00000203" />
    <rect
       x="172.5"
       y="543.26001"
       width="142.67999"
       height="7.3214002"
       ry="0.91518003"
       id="rect3143"
       style="fill:#4d4d4d;fill-rule:evenodd;stroke:url(#linearGradient3066)" />
    <rect
       x="221.38"
       y="543.26001"
       width="93.803001"
       height="2.902"
       ry="0.36274999"
       id="rect3145"
       style="fill:#808080;fill-rule:evenodd;stroke:url(#linearGradient3068)" />
    <rect
       x="167.86"
       y="544.85999"
       width="151.42999"
       height="5.7143002"
       ry="0.71429002"
       id="rect3147"
       style="fill:#999999;fill-rule:evenodd;stroke:url(#linearGradient3070)" />
    <path
       d="m 135.87,460.3 -1.7192,4.4792 c 2.132,22.058 5.0346,45.175 8.4352,66.781 1.9285,1.3067 1.7479,1.1478 3.7427,2.3487 z"
       id="path3149"
       inkscape:connector-curvature="0"
       style="fill:#00acc1;fill-rule:evenodd;stroke:url(#linearGradient3072)" />
    <rect
       transform="matrix(1,0,0.12826007,0.99174057,0,0)"
       x="73.129997"
       y="463.54974"
       width="124.25"
       height="75.048958"
       ry="1.8885989"
       id="rect3151"
       style="fill:#00acc1;fill-rule:evenodd;stroke:url(#linearGradient3074);stroke-width:0.9999997" />
    <rect
       transform="matrix(1,0,0.12826007,0.99174057,0,0)"
       x="76.160004"
       y="463.54974"
       width="124.25"
       height="75.048958"
       ry="1.8885989"
       id="rect3153"
       style="fill:#00bcd4;fill-rule:evenodd;stroke:url(#linearGradient3076);stroke-width:0.9999997" />
    <rect
       x="65.713997"
       y="550.92999"
       width="571.5"
       height="167.14"
       ry="3.0648999"
       id="rect3155"
       style="fill:#f57c00;fill-rule:evenodd;stroke:url(#linearGradient3078)" />
    <rect
       x="172.86"
       y="550.92999"
       width="183.75"
       height="167.14"
       ry="3.0648999"
       id="rect3157"
       style="fill:#fb8c00;fill-rule:evenodd;stroke:url(#linearGradient3080)" />
    <path
       d="m 302.24,478.36 -11.502,-0.54524 -8.986,6.6448 -8.9404,10.702 3.1937,2.3755 11.972,-7.505 10.856,-0.65093 2.0411,0.13388 5.8884,-6.1402 z"
       id="path3159"
       inkscape:connector-curvature="0"
       style="fill:#ff9955;fill-rule:evenodd;stroke:url(#linearGradient3082)" />
    <path
       d="m 493.73,425.09 c 12.753,-4.516 25.638,-4.5692 35.746,-4.4015 l 11.205,9.2152 c 23.649,14.759 46.923,52.018 55.267,61.854 l 17.905,-12.273 69.143,-32.401 5.5577,0.95703 c 8.6166,-4.5028 4.6094,2.8102 4.8551,11.164 l -95.496,63.897 -16.869,-6.9513 -49.975,-33.894 -20.539,-14.066 z"
       id="path3161"
       inkscape:connector-curvature="0"
       style="fill:#263238;fill-rule:evenodd;stroke:url(#linearGradient3084)" />
    <path
       d="m 678.16,447.24 c 8.3262,4.1573 9.0453,8.6205 7.8873,16.005 4.0724,5.2731 8.9919,7.8423 11.199,13.605 2.5264,4.7283 1.9888,5.4903 5.3075,12.756 1.4948,1.8632 5.7016,0.91219 7.0963,1.0738 -1.2787,-17.097 -10.818,-38.358 -17.447,-49.95 -4.9619,1.0553 -7.2486,1.1128 -14.043,6.5099 z"
       id="path3163"
       inkscape:connector-curvature="0"
       style="fill:#212121;fill-rule:evenodd;stroke:url(#linearGradient3086)" />
    <path
       d="m 530.64,470.77 c 42.033,10.347 81.13,26.382 126.18,30.879 6.2805,-5.7569 5.2442,-11.178 6.5943,-16.708 l -41.153,-109.49 -2.7586,-3.2581 -8.7302,-3.1933 -2.5782,1.6596 -0.95637,3.5381 11.278,71.808 1.3468,12.564 -72.535,-37.042 c -14.738,-4.9217 -23.844,-3.6281 -30.185,0.70915 l -15.997,36.695 z"
       id="path3165"
       inkscape:connector-curvature="0"
       style="fill:#37474f;fill-rule:evenodd;stroke:url(#linearGradient3088)" />
    <path
       d="m 391.78,431.97 -22.574,35.712 -66.663,11.416 4.4638,8.445 47.794,2.31 c 2.5025,-0.33556 10.896,-3.051 13.045,-4.1077 l 25.481,-31.024 z"
       id="path3167"
       inkscape:connector-curvature="0"
       style="fill:#ff9955;fill-rule:evenodd;stroke:url(#linearGradient3090)" />
    <path
       d="m 411.97,416.31 c -3.6588,-2.7747 -8.1543,-4.1845 -14.176,-3.1051 l -29.522,38.333 11.396,11.684 32.678,-27.127 c 2.4463,-6.6058 2.5557,-13.202 -0.3756,-19.785 z"
       id="path3169"
       inkscape:connector-curvature="0"
       style="fill:#212121;fill-rule:evenodd;stroke:url(#linearGradient3092)" />
    <path
       d="m 383.36,405.03 12.37,15.697 6.4026,25.258 -16.08,-11.626 -5.9921,-10.42 -8.4488,-6.4706 z"
       id="path3171"
       inkscape:connector-curvature="0"
       style="fill:#666666;fill-rule:evenodd;stroke:url(#linearGradient3094)" />
    <path
       d="m 388.58,410.59 c 4.3254,7.785 -3.2925,9.2341 -3.1706,24.337 28.493,35.5 96.97,15.702 125.88,37.01 2.18,-0.89109 -6.5618,-17.648 -4.8161,-18.926 14.67,-10.745 23.13,-19.719 21.09,-38.232 -44.662,4.5053 -85.56,-18.148 -138.98,-4.189 z"
       id="path3173"
       inkscape:connector-curvature="0"
       style="fill:#333333;fill-rule:evenodd;stroke:url(#linearGradient3096)" />
    <path
       d="m 390.62,440.98 -20.34,30.322 -67.913,8.7802 5.4612,6.5053 60.111,4.5312 c 2.5024,-0.33563 10.131,-0.17129 12.279,-1.2281 l 24.67,-31.942 z"
       id="path3175"
       inkscape:connector-curvature="0"
       style="fill:#ffb380;fill-rule:evenodd;stroke:url(#linearGradient3098)" />
    <path
       d="m 414.55,420.11 c -4.3315,-1.5243 -9.0428,-1.4934 -14.447,1.3741 l -21.86,35.256 19.88,17.907 22.829,-35.813 c 0.31135,-7.0373 -1.5994,-13.351 -6.4018,-18.724 z"
       id="path3177"
       inkscape:connector-curvature="0"
       style="fill:#212121;fill-rule:evenodd;stroke:url(#linearGradient3100)" />
    <path
       d="m 302.89,480.38 -11.502,-0.54524 -8.986,6.6448 -8.9404,10.702 3.1936,2.3756 11.972,-7.505 10.856,-0.65093 2.0411,0.13388 5.8884,-6.1402 z"
       id="path3179"
       inkscape:connector-curvature="0"
       style="fill:#ffb380;fill-rule:evenodd;stroke:url(#linearGradient3102)" />
    <path
       d="m 345.29,403.24 c 1.5531,3.0405 3.3392,3.7414 5.058,5.1173 0.99001,4.8195 2.3455,8.8603 3.8827,12.514 l 3.9207,-1.7536 2.997,2.6672 3.9017,2.9873 c 0.21226,2.4403 2.7863,4.5968 4.404,4.8429 4.6593,-0.94615 6.9689,-7.3662 9.6069,-9.6063 2.0286,-1.7226 -1.6064,-10.728 1.4234,-12.393 l 6.5592,-0.78829 -9.3356,-18.795 c 0,0 -9.2088,-4.6753 -10.412,-4.2448 -1.2035,0.4304 -18.639,4.8656 -18.639,4.8656 l -5.6708,11.477 z"
       id="path3181"
       inkscape:connector-curvature="0"
       style="fill:#ffb380;fill-rule:evenodd;stroke:url(#linearGradient3104)" />
    <path
       d="m 341.45,393.61 c -1.7452,5.3596 0.86443,8.151 3.9123,10.684 l 10.373,-8.0529 6.099,1.6907 c 0.76227,-0.55112 6.4696,7.3788 7.1808,6.9551 0.61266,-0.36402 -3.7646,-9.1018 -3.1939,-9.3483 4.3248,-1.8681 7.403,-0.022 8.4773,10.343 l 8.9484,3.2644 7.0232,4.3895 c 0.0322,-11.206 -2.5911,-23.177 -15.701,-37.684 -2.6995,-0.30854 -0.40038,-0.065 -2.5409,2.027 -12.499,0.19727 -20.825,9.5259 -30.578,15.732 z"
       id="path3183"
       inkscape:connector-curvature="0"
       style="fill:#424242;fill-rule:evenodd;stroke:url(#linearGradient3106)" />
    <path
       d="m 362.59,421.83 c 4.3269,-3.7838 9.2132,-8.5461 9.2132,-8.5461 -1.1777,4.2464 -2.5309,8.402 -5.4628,11.741 l -3.3171,-2.0019 z"
       id="path3185"
       inkscape:connector-curvature="0"
       style="fill:#ffffff;fill-rule:evenodd;stroke:url(#linearGradient3108)" />
    <path
       d="m 351.26,405.45 c 2.4832,-2.6486 5.2407,-5.3386 6.7294,-7.7546"
       id="path3187"
       inkscape:connector-curvature="0"
       style="fill:none;stroke:url(#linearGradient3110);stroke-width:1.37629998px" />
    <ellipse
       transform="matrix(0.86137,-0.50799,0.50799,0.86137,3.5751491e-8,-3.5751441e-8)"
       cx="99.766998"
       cy="529.71997"
       rx="1.8515"
       ry="1.624"
       id="ellipse3189"
       d="m 101.6185,529.71997 c 0,0.89691 -0.82895,1.624 -1.851502,1.624 -1.022555,0 -1.8515,-0.72709 -1.8515,-1.624 0,-0.89691 0.828945,-1.624 1.8515,-1.624 1.022552,0 1.851502,0.72709 1.851502,1.624 z"
       sodipodi:cx="99.766998"
       sodipodi:cy="529.71997"
       sodipodi:rx="1.8515"
       sodipodi:ry="1.624"
       style="fill:#1a1a1a;fill-rule:evenodd;stroke:url(#linearGradient3112)" />
    <path
       d="m 607.19,383.02 c 7.0657,-6.0569 11.458,-4.9854 17.812,-1.0494 6.441,-1.7036 10.72,-5.2386 16.888,-5.0335 5.3385,-0.49089 5.8318,0.30069 13.816,0.0654 2.2977,-0.65337 3.0558,-4.8991 3.7466,-6.1214 -16.251,-5.4645 -39.548,-4.9347 -52.804,-3.33 -0.95548,4.9821 -1.7909,7.1115 0.54235,15.469 z"
       id="path3191"
       inkscape:connector-curvature="0"
       style="fill:#263238;fill-rule:evenodd;stroke:url(#linearGradient3114)" />
    <path
       d="m 351.1,412.74 c 0.72436,2.7461 2.4038,7.5526 3.7625,9.9181 1.0442,-0.42522 2.2928,-1.0213 3.337,-2.3415 l 5.2126,5.1704 6.0977,6.0484 c 9.6072,-5.1121 14.065,-15.985 11.47,-28.723 -9.3684,-0.15924 -12.723,11.407 -29.88,9.9278 z"
       id="path3193"
       inkscape:connector-curvature="0"
       style="fill:#333333;fill-rule:evenodd;stroke:url(#linearGradient3116)" />
    <rect
       x="65.713997"
       y="550.92999"
       width="112.09"
       height="167.14"
       ry="3.0648999"
       id="rect3195"
       style="fill:#f57c00;fill-rule:evenodd;stroke:url(#linearGradient3118)" />
    <rect
       transform="matrix(1,0,0.12826007,0.99174057,0,0)"
       x="82.462997"
       y="469.89975"
       width="112.24"
       height="63.246967"
       ry="1.3200992"
       id="rect3197"
       style="fill:#4fc3f7;fill-rule:evenodd;stroke:url(#linearGradient3120);stroke-width:0.9999997" />
    <rect
       x="167.86"
       y="544.85999"
       width="53.570999"
       height="5.7143002"
       ry="0.71429002"
       id="rect3199"
       style="fill:#808080;fill-rule:evenodd;stroke:url(#linearGradient3122)" />
    <rect
       x="61.785999"
       y="550.92999"
       width="581.34003"
       height="22.186001"
       ry="0.40682"
       id="rect3201"
       style="fill:#689f38;fill-rule:evenodd;stroke:url(#linearGradient3124)" />
    <rect
       transform="matrix(0.98297686,-0.18372941,0,1,0,0)"
       x="175.85059"
       y="616.58002"
       width="186.93059"
       height="167.14"
       ry="3.0648999"
       id="rect3203"
       style="fill:#fb8c00;fill-rule:evenodd;stroke:url(#linearGradient3126);stroke-width:1.00000155" />
    <rect
       x="61.785999"
       y="550.92999"
       width="295.97"
       height="22.186001"
       ry="0.40682"
       id="rect3205"
       style="fill:#7cb342;fill-rule:evenodd;stroke:url(#linearGradient3128)" />
    <rect
       x="61.785999"
       y="550.92999"
       width="116.02"
       height="22.186001"
       ry="0.40682"
       id="rect3207"
       style="fill:#689f38;fill-rule:evenodd;stroke:url(#linearGradient3130)" />
    <rect
       transform="matrix(1,0,0.10626972,0.99433734,0,0)"
       x="107.88999"
       y="500.37134"
       width="84.278"
       height="15.319041"
       ry="2.5125067"
       id="rect3209"
       style="fill:#ffffff;fill-rule:evenodd;stroke:url(#linearGradient3132);stroke-width:1.00000131" />
    <text
       transform="matrix(1.1223235,0,0.12597264,0.89100869,0,0)"
       x="82.589027"
       y="554.71423"
       font-size="14.971px"
       font-stretch="condensed"
       letter-spacing="0px"
       word-spacing="0px"
       style="font-size:14.97068596px;font-stretch:condensed;line-height:125%;letter-spacing:0px;word-spacing:0px;fill:#ffffff;stroke:url(#linearGradient3134);stroke-width:0.99997902px;font-family:Swis721 BlkCn BT"
       xml:space="preserve"
       id="text3211"
       sodipodi:linespacing="125%"><tspan
         x="82.589027"
         y="554.71423"
         id="tspan3213"
         style="stroke:url(#linearGradient3134);stroke-width:0.99997902">PASSWORD</tspan></text>
    <rect
       x="65.713997"
       y="585.28003"
       width="112.09"
       height="165.71001"
       ry="3.0648999"
       id="rect3215"
       style="fill:#f57c00;fill-rule:evenodd;stroke:url(#linearGradient3136)" />
    <path
       d="m 524.29,412.99 -2.9018,-0.17856 4.3304,-7.7679 c 1.2676,-1.2394 2.6349,-1.8312 4.375,0 l 2.1428,8.2143 -5.8036,-0.0893 -0.71428,2.2322 9.2857,-0.17857 -2.7679,-12.143 c -2.0684,-1.9347 -5.1469,-2.8537 -8.0357,0.13393 l -6.1607,11.027 5.8036,0.89285 z"
       id="path3217"
       inkscape:connector-curvature="0"
       style="fill:#666666;fill-rule:evenodd;stroke:url(#linearGradient3138)" />
    <path
       d="m 522.5,412.01 c -10.532,16.519 -20.234,33.74 -26.429,53.929 l 7.5,3.2143 c 13.062,-15.227 21.776,-34.719 27.5,-57.143 z"
       id="path3219"
       inkscape:connector-curvature="0"
       style="fill:#1a1a1a;fill-rule:evenodd;stroke:url(#linearGradient3140)" />
    <rect
       x="525.71002"
       y="69.504997"
       width="5"
       height="337.14001"
       ry="1.4295"
       id="rect3221"
       style="fill:#333333;fill-rule:evenodd;stroke:url(#linearGradient3142)" />
    <rect
       x="93.583"
       y="547.71997"
       width="41.658001"
       height="3.0379"
       ry="1.5190001"
       id="rect3223"
       style="fill:#607d8b;fill-rule:evenodd;stroke:url(#linearGradient3144)" />
    <rect
       x="105.37"
       y="547.71997"
       width="29.872"
       height="3.0379"
       ry="1.5190001"
       id="rect3225"
       style="fill:#78909c;fill-rule:evenodd;stroke:url(#linearGradient3146)" />
    <rect
       transform="matrix(-1,0,-0.19611998,0.98057991,0,0)"
       x="-232.94"
       y="528.19"
       width="29.872"
       height="31.085003"
       ry="1.8990003"
       id="rect3227"
       style="fill:#f9a825;fill-rule:evenodd;stroke:url(#linearGradient3148);stroke-width:1" />
    <rect
       transform="matrix(1,0,0.19611998,0.98057991,0,0)"
       x="-4.1111002"
       y="528.19"
       width="29.872"
       height="31.085003"
       ry="1.8990003"
       id="rect3229"
       style="fill:#ffeb3b;fill-rule:evenodd;stroke:url(#linearGradient3150);stroke-width:1" />
    <text
       transform="matrix(0.96163546,0,0.22048896,1.0398951,0,0)"
       x="-5.8498077"
       y="520.26648"
       font-size="21.159px"
       font-weight="bold"
       letter-spacing="0px"
       word-spacing="0px"
       style="font-size:21.15909958px;font-weight:bold;line-height:125%;letter-spacing:0px;word-spacing:0px;fill:#ffa000;stroke:url(#linearGradient3152);stroke-width:1.00000477px;font-family:News706 BT"
       xml:space="preserve"
       id="text3231"
       sodipodi:linespacing="125%"><tspan
         x="-5.8498077"
         y="520.26648"
         id="tspan3233"
         style="stroke:url(#linearGradient3152);stroke-width:1.00000477">01</tspan></text>
    <path
       d="m 356.52685,573.12112 c 18.08879,36.66301 4.60142,100.09995 0.0773,140.88556 0,1.698 -1.34364,3.31604 -3.01274,3.62802 l -177.72278,33.21838 c -1.6691,0.31198 -4.5914,-1.87641 -3.01274,-2.50178 113.66198,-29.2941 163.92175,-92.87882 183.66982,-175.22995 z"
       id="path3235"
       inkscape:connector-curvature="0"
       style="fill:#f57c00;fill-opacity:0.37430001;fill-rule:evenodd;stroke:url(#linearGradient3154);stroke-width:0.99145347" />
  </g>
  <flowRoot
     xml:space="preserve"
     id="flowRoot3243"
     style="font-size:40px;font-style:normal;font-weight:normal;line-height:125%;letter-spacing:0px;word-spacing:0px;fill:#000000;fill-opacity:1;stroke:none;font-family:Sans"
     transform="matrix(1.0437304,0,0,1.8275014,-24.669249,-61.25113)"><flowRegion
       id="flowRegion3245"><rect
         id="rect3247"
         width="473.06888"
         height="92.054314"
         x="36.090427"
         y="42.459328" /></flowRegion><flowPara
       id="flowPara3249"
       style="font-style:normal;font-variant:normal;font-weight:normal;font-stretch:normal;font-family:Courier 10 Pitch;-inkscape-font-specification:Courier 10 Pitch">Sicherheitshinweise</flowPara></flowRoot></svg>
