<?xml version="1.0" encoding="utf-8"?>
<!-- Generator: Adobe Illustrator 16.0.0, SVG Export Plug-In . SVG Version: 6.00 Build 0)  -->
<!DOCTYPE svg PUBLIC "-//W3C//DTD SVG 1.1//EN" "http://www.w3.org/Graphics/SVG/1.1/DTD/svg11.dtd">
<svg version="1.1" id="Ebene_1" xmlns="http://www.w3.org/2000/svg" xmlns:xlink="http://www.w3.org/1999/xlink" x="0px" y="0px"
	 width="595.28px" height="841.89px" viewBox="0 0 595.28 841.89" enable-background="new 0 0 595.28 841.89" xml:space="preserve">
<g>
	<path d="M200.24,186.796h-6.324v-1.426c0-1.446-0.341-2.697-1.023-3.751c-0.682-1.054-1.829-1.581-3.441-1.581
		c-0.868,0-1.581,0.166-2.139,0.496c-0.558,0.331-0.992,0.754-1.302,1.271c-0.31,0.517-0.527,1.116-0.651,1.798
		s-0.186,1.395-0.186,2.139c0,0.868,0.031,1.602,0.093,2.201c0.062,0.6,0.217,1.116,0.465,1.55c0.248,0.434,0.609,0.816,1.085,1.147
		c0.475,0.331,1.125,0.662,1.953,0.992l4.836,1.922c1.405,0.538,2.542,1.168,3.41,1.891c0.868,0.724,1.54,1.571,2.015,2.542
		c0.475,0.972,0.795,2.088,0.961,3.348c0.165,1.261,0.248,2.697,0.248,4.309c0,1.86-0.186,3.586-0.558,5.177
		c-0.372,1.592-0.982,2.956-1.829,4.092c-0.848,1.137-1.974,2.036-3.379,2.697c-1.406,0.661-3.121,0.992-5.146,0.992
		c-1.53,0-2.956-0.27-4.278-0.806c-1.323-0.537-2.46-1.271-3.41-2.201c-0.951-0.93-1.705-2.036-2.263-3.317
		c-0.558-1.281-0.837-2.666-0.837-4.154v-2.356h6.324v1.984c0,1.158,0.341,2.201,1.023,3.131c0.682,0.93,1.829,1.395,3.441,1.395
		c1.074,0,1.912-0.155,2.511-0.465c0.599-0.31,1.054-0.744,1.364-1.302c0.31-0.558,0.506-1.25,0.589-2.077
		c0.083-0.827,0.124-1.736,0.124-2.728c0-1.157-0.042-2.108-0.124-2.852c-0.083-0.744-0.258-1.343-0.527-1.798
		c-0.269-0.455-0.641-0.827-1.116-1.116c-0.476-0.289-1.106-0.599-1.891-0.93l-4.526-1.86c-2.728-1.116-4.557-2.593-5.487-4.433
		c-0.93-1.838-1.395-4.143-1.395-6.913c0-1.653,0.227-3.224,0.682-4.712c0.454-1.488,1.125-2.769,2.015-3.844
		c0.888-1.074,2.015-1.932,3.379-2.573c1.364-0.64,2.955-0.961,4.774-0.961c1.57,0,3.007,0.29,4.309,0.868
		c1.302,0.579,2.418,1.344,3.348,2.294c0.93,0.951,1.643,2.015,2.139,3.193c0.496,1.178,0.744,2.387,0.744,3.627V186.796z"/>
	<path d="M204.952,174.086h6.324v44.144h-6.324V174.086z"/>
	<path d="M237.315,208.372c0,1.364-0.259,2.666-0.775,3.906c-0.518,1.24-1.23,2.325-2.139,3.255c-0.91,0.93-1.974,1.674-3.193,2.232
		c-1.22,0.558-2.532,0.837-3.937,0.837c-1.199,0-2.418-0.166-3.658-0.496c-1.24-0.33-2.356-0.899-3.348-1.705
		c-0.992-0.806-1.809-1.87-2.449-3.193c-0.641-1.322-0.961-2.997-0.961-5.022v-24.304c0-1.446,0.248-2.79,0.744-4.03
		c0.496-1.24,1.198-2.314,2.108-3.224c0.909-0.909,1.994-1.622,3.255-2.139c1.26-0.516,2.655-0.775,4.185-0.775
		c1.446,0,2.79,0.259,4.03,0.775c1.24,0.518,2.314,1.24,3.224,2.17c0.909,0.93,1.622,2.046,2.139,3.348
		c0.516,1.302,0.775,2.718,0.775,4.247v2.48h-6.324v-2.108c0-1.24-0.352-2.314-1.054-3.224c-0.703-0.909-1.654-1.364-2.852-1.364
		c-1.571,0-2.615,0.486-3.131,1.457c-0.518,0.972-0.775,2.201-0.775,3.689v22.568c0,1.282,0.279,2.356,0.837,3.224
		c0.558,0.868,1.56,1.302,3.007,1.302c0.413,0,0.857-0.072,1.333-0.217c0.475-0.145,0.909-0.382,1.302-0.713
		c0.392-0.331,0.713-0.785,0.961-1.364c0.248-0.578,0.372-1.302,0.372-2.17v-2.17h6.324V208.372z"/>
	<path d="M240.911,174.086h6.324v18.91h7.812v-18.91h6.324v44.144h-6.324v-19.654h-7.812v19.654h-6.324V174.086z"/>
	<path d="M265.772,174.086h18.848v5.952h-12.524v12.958h10.912v5.952h-10.912v12.958h12.524v6.324h-18.848V174.086z"/>
	<path d="M288.526,174.086h10.168c7.44,0,11.16,4.32,11.16,12.958c0,2.563-0.403,4.764-1.209,6.603
		c-0.806,1.84-2.223,3.317-4.247,4.433l6.82,20.15h-6.696l-5.89-18.848h-3.782v18.848h-6.324V174.086z M294.85,193.802h3.596
		c1.116,0,2.005-0.155,2.666-0.465s1.167-0.753,1.519-1.333c0.352-0.578,0.59-1.292,0.713-2.139
		c0.125-0.847,0.187-1.829,0.187-2.945c0-1.116-0.062-2.097-0.187-2.945c-0.123-0.847-0.383-1.57-0.774-2.17
		c-0.394-0.599-0.94-1.043-1.644-1.333c-0.703-0.289-1.633-0.434-2.79-0.434h-3.286V193.802z"/>
	<path d="M314.629,174.086h6.323v18.91h7.812v-18.91h6.324v44.144h-6.324v-19.654h-7.812v19.654h-6.323V174.086z"/>
	<path d="M340.854,174.086h18.849v5.952h-12.524v12.958h10.912v5.952h-10.912v12.958h12.524v6.324h-18.849V174.086z"/>
	<path d="M364.166,174.086h6.323v44.144h-6.323V174.086z"/>
	<path d="M381.028,180.038h-7.315v-5.952h20.955v5.952h-7.315v38.192h-6.324V180.038z"/>
	<path d="M417.732,186.796h-6.324v-1.426c0-1.446-0.342-2.697-1.023-3.751c-0.682-1.054-1.829-1.581-3.441-1.581
		c-0.867,0-1.58,0.166-2.139,0.496c-0.558,0.331-0.992,0.754-1.302,1.271c-0.31,0.517-0.526,1.116-0.651,1.798
		c-0.123,0.682-0.186,1.395-0.186,2.139c0,0.868,0.031,1.602,0.093,2.201c0.062,0.6,0.218,1.116,0.466,1.55
		c0.247,0.434,0.608,0.816,1.084,1.147c0.475,0.331,1.126,0.662,1.953,0.992l4.836,1.922c1.404,0.538,2.543,1.168,3.41,1.891
		c0.868,0.724,1.539,1.571,2.016,2.542c0.475,0.972,0.795,2.088,0.961,3.348c0.164,1.261,0.248,2.697,0.248,4.309
		c0,1.86-0.187,3.586-0.559,5.177c-0.372,1.592-0.982,2.956-1.829,4.092c-0.848,1.137-1.974,2.036-3.379,2.697
		s-3.121,0.992-5.146,0.992c-1.53,0-2.956-0.27-4.278-0.806c-1.323-0.537-2.46-1.271-3.41-2.201
		c-0.951-0.93-1.705-2.036-2.263-3.317c-0.559-1.281-0.838-2.666-0.838-4.154v-2.356h6.324v1.984c0,1.158,0.342,2.201,1.023,3.131
		c0.682,0.93,1.829,1.395,3.441,1.395c1.074,0,1.911-0.155,2.511-0.465c0.599-0.31,1.054-0.744,1.364-1.302
		c0.31-0.558,0.506-1.25,0.588-2.077c0.083-0.827,0.125-1.736,0.125-2.728c0-1.157-0.042-2.108-0.125-2.852
		c-0.082-0.744-0.258-1.343-0.526-1.798c-0.269-0.455-0.642-0.827-1.116-1.116c-0.476-0.289-1.105-0.599-1.891-0.93l-4.525-1.86
		c-2.729-1.116-4.558-2.593-5.488-4.433c-0.93-1.838-1.395-4.143-1.395-6.913c0-1.653,0.227-3.224,0.682-4.712
		c0.455-1.488,1.126-2.769,2.016-3.844c0.889-1.074,2.015-1.932,3.379-2.573c1.363-0.64,2.955-0.961,4.773-0.961
		c1.57,0,3.008,0.29,4.31,0.868c1.302,0.579,2.418,1.344,3.349,2.294c0.93,0.951,1.643,2.015,2.139,3.193
		c0.496,1.178,0.744,2.387,0.744,3.627V186.796z"/>
	<path d="M208.548,231.086h6.324v18.91h7.812v-18.91h6.324v44.144h-6.324v-19.654h-7.812v19.654h-6.324V231.086z"/>
	<path d="M234.96,231.086h6.324v44.144h-6.324V231.086z"/>
	<path d="M246.987,231.086h6.076l9.548,26.598h0.124v-26.598h6.324v44.144h-5.952l-9.672-26.536h-0.124v26.536h-6.324V231.086z"/>
	<path d="M300.803,275.23h-5.953l-4.836-28.644h-0.124l-4.774,28.644h-5.952l-6.572-44.144h6.696l3.162,28.024h0.124l4.96-28.024
		h4.836l5.146,28.706h0.124l3.038-28.706h6.696L300.803,275.23z"/>
	<path d="M310.535,231.086h18.849v5.952h-12.524v12.958h10.912v5.952h-10.912v12.958h12.524v6.324h-18.849V231.086z"/>
	<path d="M333.475,231.086h6.324v44.144h-6.324V231.086z"/>
	<path d="M366.211,243.796h-6.324v-1.426c0-1.446-0.342-2.697-1.023-3.751c-0.682-1.054-1.829-1.581-3.441-1.581
		c-0.867,0-1.58,0.166-2.139,0.496c-0.558,0.331-0.992,0.754-1.302,1.271c-0.31,0.517-0.526,1.116-0.651,1.798
		c-0.123,0.682-0.186,1.395-0.186,2.139c0,0.868,0.031,1.602,0.093,2.201c0.062,0.6,0.218,1.116,0.466,1.55
		c0.247,0.434,0.608,0.816,1.084,1.147c0.475,0.331,1.126,0.662,1.953,0.992l4.836,1.922c1.404,0.538,2.543,1.168,3.41,1.891
		c0.868,0.724,1.539,1.571,2.016,2.542c0.475,0.972,0.795,2.088,0.961,3.348c0.164,1.261,0.248,2.697,0.248,4.309
		c0,1.86-0.187,3.586-0.559,5.177c-0.372,1.592-0.982,2.956-1.829,4.092c-0.848,1.137-1.974,2.036-3.379,2.697
		s-3.121,0.992-5.146,0.992c-1.53,0-2.956-0.27-4.278-0.806c-1.323-0.537-2.46-1.271-3.41-2.201
		c-0.951-0.93-1.705-2.036-2.263-3.317c-0.559-1.281-0.838-2.666-0.838-4.154v-2.356h6.324v1.984c0,1.158,0.342,2.201,1.023,3.131
		c0.682,0.93,1.829,1.395,3.441,1.395c1.074,0,1.911-0.155,2.511-0.465c0.599-0.31,1.054-0.744,1.364-1.302
		c0.31-0.558,0.506-1.25,0.588-2.077c0.083-0.827,0.125-1.736,0.125-2.728c0-1.157-0.042-2.108-0.125-2.852
		c-0.082-0.744-0.258-1.343-0.526-1.798c-0.269-0.455-0.642-0.827-1.116-1.116c-0.476-0.289-1.105-0.599-1.891-0.93l-4.525-1.86
		c-2.729-1.116-4.558-2.593-5.488-4.433c-0.93-1.838-1.395-4.143-1.395-6.913c0-1.653,0.227-3.224,0.682-4.712
		c0.455-1.488,1.126-2.769,2.016-3.844c0.889-1.074,2.015-1.932,3.379-2.573c1.363-0.64,2.955-0.961,4.773-0.961
		c1.57,0,3.008,0.29,4.31,0.868c1.302,0.579,2.418,1.344,3.349,2.294c0.93,0.951,1.643,2.015,2.139,3.193
		c0.496,1.178,0.744,2.387,0.744,3.627V243.796z"/>
	<path d="M370.736,231.086h18.848v5.952H377.06v12.958h10.912v5.952H377.06v12.958h12.524v6.324h-18.848V231.086z"/>
</g>
<path fill-rule="evenodd" clip-rule="evenodd" d="M230.451,448.07c0.779-2.225,0.647-4.078,0.76-5.896
	c0.06-0.967,0.091-1.938,0.215-2.896c0.026-0.199,0.397-0.488,0.617-0.496c0.232-0.008,0.645,0.234,0.686,0.43
	c0.302,1.424,0.562,2.859,0.775,4.299c0.414,2.789,0.767,5.588,1.192,8.377c0.161,1.055,0.417,2.098,0.687,3.131
	c0.788,3.021,2.367,5.506,4.939,7.35c1.421,1.02,2.784,2.123,4.137,3.234c3.211,2.641,4.747,6.07,4.776,10.213
	c0.021,3.113,0.134,6.223,0.658,9.305c0.375,2.209,0.813,4.395,1.696,6.469c0.465,1.094,1.067,2.074,2.015,2.814
	c0.869,0.68,1.931,0.428,2.374-0.605c0.186-0.436,0.288-0.928,0.327-1.4c0.202-2.422,0.277-4.859,0.578-7.268
	c0.252-2.016,0.63-4.035,1.171-5.992c1.105-4,3.456-7.102,6.98-9.365c5.917-3.801,12.144-6.992,18.759-9.342
	c3.956-1.406,8.076-2.148,12.324-1.322c0.656,0.127,1.396,0.26,2.014,0.088c3.534-0.979,6.946-0.162,10.377,0.545
	c3.275,0.674,6.264,2.125,9.221,3.574c3.574,1.752,7.028,3.754,10.524,5.662c5.692,3.111,8.44,8.146,9.228,14.383
	c0.342,2.699,0.447,5.428,0.713,8.137c0.085,0.857,0.252,1.73,0.549,2.535c0.309,0.836,1.262,1.088,1.925,0.502
	c0.714-0.629,1.449-1.34,1.876-2.17c0.617-1.197,1.078-2.504,1.402-3.814c0.771-3.123,1.221-6.295,1.271-9.523
	c0.028-1.842,0.183-3.686,0.344-5.523c0.251-2.857,1.651-5.156,3.675-7.098c0.911-0.873,1.912-1.652,2.883-2.463
	c0.373-0.312,0.758-0.615,1.164-0.879c3.846-2.508,5.832-6.145,6.477-10.605c0.569-3.943,1.137-7.889,1.718-11.83
	c0.069-0.473,0.167-0.959,0.363-1.387c0.093-0.203,0.46-0.4,0.688-0.385c0.221,0.012,0.57,0.273,0.61,0.475
	c0.149,0.756,0.194,1.531,0.315,2.646c0.401-0.643,0.773-1.021,0.895-1.467c1.142-4.221,2.273-8.443,3.336-12.686
	c0.354-1.406,0.539-2.861,0.728-4.305c0.214-1.658-0.433-2.682-2.052-3.428c-0.529-0.242-1.1-0.408-1.594-0.707
	c-0.779-0.469-0.808-1.675-0.104-2.262c2.429-2.025,5.512-1.798,7.506,0.634c1.543,1.88,2.203,3.966,1.786,6.503
	c-0.836,5.094-2.088,10.084-3.333,15.08c-1.975,7.916-4.032,15.812-5.988,23.732c-0.321,1.303-0.372,2.686-0.43,4.037
	c-0.168,3.986-0.186,7.98-0.451,11.959c-0.102,1.518-0.478,3.117-1.138,4.482c-6.821,14.088-13.487,28.258-21.176,41.908
	c-0.477,0.848-1.019,1.658-1.483,2.512c-1.688,3.09-4.203,5.305-7.244,7.002c-3.506,1.953-7.246,3.314-11.09,4.389
	c-6.094,1.703-12.302,2.844-18.582,3.623c-2.416,0.299-4.822,0.768-7.26,0.504c-9.487-1.029-18.894-2.492-27.902-5.801
	c-2.09-0.768-4.111-1.754-6.093-2.777c-3.099-1.598-5.557-3.918-7.223-7.01c-3.55-6.592-7.188-13.137-10.59-19.803
	c-3.935-7.707-7.63-15.533-11.48-23.283c-1.148-2.312-1.807-4.699-1.826-7.283c-0.01-1.361-0.106-2.721-0.182-4.082
	c-0.076-1.35-0.224-2.631-0.761-3.953c-0.644-1.59-0.719-3.406-1.073-5.117c-1.46-7.043-3.374-13.975-5.259-20.912
	c-1.171-4.311-2.324-8.627-3.397-12.963c-0.677-2.74-1.124-5.533-0.967-8.371c0.058-1.059,0.209-2.143,0.532-3.146
	c0.763-2.371,3.097-3.708,5.521-3.207c0.846,0.174,1.688,0.486,2.459,0.876c1.137,0.575,1.201,1.885,0.189,2.592
	c-0.235,0.164-0.5,0.303-0.771,0.4c-1.767,0.639-2.151,1.982-2.126,3.713c0.041,2.855,0.792,5.58,1.4,8.324
	c1.03,4.645,2.2,9.258,3.337,13.879C229.741,446.271,230.05,446.945,230.451,448.07z M325.314,492.359
	c-0.336-3.527-1.43-6.812-3.143-9.914c-1.062-1.922-2.576-3.033-4.83-3.275c-4.345-0.465-8.672-1.092-13.011-1.607
	c-1.935-0.229-3.858-0.455-5.676-1.209c-0.831-0.346-1.639-0.473-2.53-0.082c-1.982,0.871-4.112,1.08-6.243,1.322
	c-4.245,0.482-8.474,1.113-12.72,1.578c-2.259,0.248-3.743,1.426-4.81,3.326c-1.441,2.566-2.377,5.307-2.942,8.191
	c-0.422,2.15,0.042,4.027,1.444,5.715c2.438,2.934,5.15,5.574,8.309,7.719c1.938,1.316,4.034,2.291,6.347,2.842
	c2.696,0.641,4.778-0.209,6.441-2.295c0.604-0.756,1.066-1.627,1.669-2.389c0.6-0.756,1.223-1.523,1.961-2.135
	c1.134-0.939,2.314-0.934,3.441,0.039c0.799,0.689,1.463,1.547,2.123,2.381c0.604,0.76,1.057,1.641,1.685,2.375
	c1.577,1.846,3.566,2.701,5.983,2.029c1.488-0.414,3.015-0.842,4.369-1.557c4.372-2.307,7.861-5.674,10.895-9.535
	C324.875,494.861,325.361,493.705,325.314,492.359z"/>
<path fill-rule="evenodd" clip-rule="evenodd" d="M376.181,351.417c0.34,0.907,0.625,1.831,1.022,2.704
	c1.828,4.005,3,8.247,3.888,12.507c1.573,7.537,2.364,15.189,1.409,22.905c-0.825,6.664-2.18,13.219-4.432,19.562
	c-0.227,0.64-0.546,1.247-0.817,1.871c-0.486,1.116-1.156,2.017-2.457,2.264c-1.528,0.291-2.347,0.022-3.987-1.443
	c0.139-0.472,0.25-1.029,0.463-1.546c1.515-3.687,2.931-7.415,3.773-11.314c0.757-3.508,1.517-7.012,1.786-10.621
	c0.312-4.189,0.376-8.354-0.094-12.525c-0.163-1.447-0.285-2.911-0.612-4.323c-0.566-2.456-0.975-4.936-1.672-7.376
	c-2.789-9.764-7.504-18.527-13.424-26.694c-3.32-4.581-6.975-8.875-11.172-12.688c-8.082-7.338-17.1-13.146-27.455-16.75
	c-2.657-0.924-5.303-1.979-8.043-2.545c-4.938-1.02-9.877-2.184-14.992-1.977c-4.082,0.165-8.2-0.026-12.243,0.45
	c-5.296,0.623-10.487,1.892-15.553,3.67c-7.027,2.469-13.53,5.917-19.642,10.119c-5.967,4.104-11.211,9.013-15.867,14.564
	c-4.269,5.09-7.893,10.607-11.114,16.401c-2.369,4.261-4.148,8.778-5.761,13.364c-0.317,0.901-0.402,1.885-0.695,3.323
	c0.718-0.775,1.178-1.169,1.514-1.65c4.789-6.863,9.561-13.738,14.337-20.608c0.445-0.64,0.889-1.279,1.357-1.901
	c0.798-1.061,1.816-1.675,3.19-1.792c2.034-0.173,4.085-0.339,6.077-0.756c2.56-0.536,5.113-1.189,7.589-2.024
	c3.984-1.344,7.715-3.233,11.014-5.884c2.686-2.159,4.989-4.643,6.323-7.885c0.634-1.542,1.643-2.592,3.318-2.979
	c6.169-1.425,12.055-3.743,18.018-5.809c3.444-1.193,6.921-1.953,10.584-1.39c0.48,0.074,0.974,0.099,1.441,0.223
	c6.1,1.611,12.199,3.227,18.293,4.862c4.221,1.132,8.412,2.377,12.654,3.418c3.029,0.743,5.239,2.399,6.822,5.047
	c2.345,3.927,4.74,7.824,7.668,11.36c4.221,5.098,8.438,10.199,12.656,15.299c3.724,4.499,7.45,8.995,11.171,13.497
	c0.372,0.449,0.707,0.929,1.067,1.388c1.086,1.382,1.387,2.905,1.14,4.659c-0.584,4.154-1.692,8.186-2.751,12.225
	c-1.627,6.203-3.398,12.369-5.105,18.551c-0.104,0.374-0.133,0.778-0.287,1.129c-0.504,1.146-1.318,1.851-2.647,1.963
	c-3.185,0.271-3.785-0.329-3.698-3.466c0.074-2.665,0.818-5.187,1.464-7.72c1.105-4.33,2.433-8.604,3.568-12.926
	c0.593-2.253,1.026-4.552,1.435-6.848c0.168-0.947,0.084-1.94,0.107-2.912c0.02-0.916-0.294-1.723-0.869-2.42
	c-0.865-1.051-1.714-2.121-2.641-3.117c-7.76-8.35-16.026-16.183-24.425-23.88c-0.488-0.447-1.03-0.835-1.827-1.476
	c0,0.774-0.084,1.219,0.016,1.615c0.404,1.602,0.91,3.177,1.295,4.782c0.476,1.986-0.365,2.954-2.451,2.8
	c-0.86-0.063-1.721-0.291-2.553-0.535c-3.852-1.129-7.396-2.938-10.849-4.951c-2.016-1.177-4.042-2.337-6.087-3.46
	c-0.643-0.354-1.362-0.565-2.003-0.824c-0.503,0.78-0.104,1.266,0.14,1.772c0.674,1.402,1.414,2.775,2.01,4.21
	c0.577,1.395-0.177,2.533-1.702,2.621c-2.827,0.162-5.646,0.006-8.419-0.586c-2.275-0.486-4.6-0.609-6.867-1.244
	c-4.514-1.264-8.421-3.498-11.81-6.685c-2.411-2.267-4.761-4.599-7.191-6.846c-1.211-1.12-2.528-2.129-3.823-3.156
	c-0.365-0.29-0.819-0.468-1.143-0.646c-1.161,0.431-1.521,1.399-2.098,2.158c-1.646,2.17-3.207,4.409-4.927,6.518
	c-3.09,3.786-6.923,6.587-11.689,7.833c-3.085,0.808-6.177,1.739-9.448,1.572c-1.455-0.073-2.919,0.062-4.379,0.037
	c-1.703-0.027-2.94,0.674-3.951,2.046c-2.942,3.996-5.953,7.943-8.938,11.908c-1.405,1.866-2.8,3.739-4.222,5.593
	c-0.946,1.233-1.223,2.474-0.803,4.071c2.397,9.114,4.681,18.26,7.005,27.395c0.407,1.601,0.832,3.197,1.227,4.801
	c0.092,0.374,0.131,0.77,0.136,1.155c0.02,1.389-1.187,2.166-2.393,1.481c-2.48-1.405-4.136-3.505-4.958-6.235
	c-0.28-0.929-0.502-1.878-0.692-2.829c-1.219-6.117-3.37-11.971-5.058-17.955c-0.738-2.617-1.39-5.259-2.099-7.885
	c-0.197-0.729-0.459-1.441-0.792-2.47c-1.104,3.71-1.636,7.122-1.553,10.625c0.019,0.778,0.037,1.559-0.006,2.336
	c-0.327,6.009,0.982,11.793,2.44,17.549c0.547,2.16,1.292,4.271,1.914,6.412c0.298,1.025,0.615,2.061,0.753,3.112
	c0.234,1.783-0.879,3.556-2.5,4.21c-0.706,0.284-1.415,0.082-1.774-0.539c-0.194-0.335-0.354-0.693-0.499-1.054
	c-1.756-4.434-3.273-8.953-4.319-13.603c-0.575-2.554-0.789-5.188-1.188-7.783c-0.805-5.231-0.676-10.453-0.124-15.708
	c0.884-8.388,3.081-16.394,6.495-24.085c0.037-0.083,0.017-0.191,0.035-0.474c-0.09-0.197-0.188-0.59-0.416-0.882
	c-4.9-6.27-8.397-13.306-11.204-20.698c-1.688-4.445-3.241-8.939-4.269-13.602c-0.648-2.937-1.48-5.833-2.188-8.757
	c-0.25-1.037-0.385-2.102-0.557-3.156c-0.266-1.631-0.418-3.287-0.795-4.891c-0.674-2.87-0.708-5.782-0.796-8.695
	c-0.014-0.476,0.034-0.997,0.218-1.425c0.501-1.167,1.389-1.929,2.716-1.809c1.835,0.166,3.654,0.536,5.491,0.673
	c4.184,0.312,8.242,1.361,12.351,2.086c3.048,0.538,6.05,1.382,9.036,2.221c3.459,0.972,6.918,1.971,10.304,3.166
	c5.786,2.043,11.342,4.626,16.615,7.775c1.912,1.142,3.705,2.483,5.622,3.78c2.115-0.919,4.12-1.893,6.198-2.667
	c2.725-1.017,5.506-1.881,8.266-2.802c0.828-0.276,1.656-0.568,2.503-0.77c1.317-0.312,2.65-0.561,3.979-0.824
	c0.476-0.094,0.967-0.119,1.439-0.229c6.228-1.455,12.547-1.34,18.872-1.111c0.875,0.032,1.752,0.05,2.627,0.065
	c2.535,0.045,5.025,0.394,7.528,0.814c3.264,0.549,6.467,1.318,9.614,2.276c2.873,0.874,5.666,2.012,8.475,3.085
	c1.27,0.484,2.553,0.988,3.72,1.672c1.403,0.823,2.562,0.562,3.762-0.343c0.774-0.584,1.587-1.128,2.429-1.61
	c3.203-1.837,6.334-3.834,9.66-5.414c5.713-2.711,11.684-4.756,17.766-6.534c5.238-1.531,10.626-2.313,15.894-3.665
	c0.845-0.217,1.721-0.37,2.59-0.426c2.628-0.171,5.207-0.613,7.791-1.096c3.314-0.618,5.259,0.504,4.936,4.386
	c-0.218,2.612-0.281,5.225-0.866,7.813c-0.835,3.694-1.375,7.453-2.154,11.161c-0.599,2.846-1.313,5.671-2.079,8.477
	c-1.437,5.256-3.354,10.351-5.513,15.346c-2.515,5.821-5.565,11.344-9.719,16.194C376.741,350.503,376.509,350.932,376.181,351.417z
	 M373.154,345.616c2.779-3.531,4.78-6.96,6.53-10.526c3.346-6.821,5.893-13.921,7.784-21.302c1.4-5.463,2.426-10.994,3.638-16.49
	c0.306-1.385,0.528-2.853-0.013-4.372c-0.65,0.043-1.223,0.047-1.786,0.124c-5.587,0.76-11.113,1.767-16.579,3.215
	c-5.172,1.37-10.288,2.844-15.297,4.735c-5.486,2.071-10.685,4.668-15.594,7.857c-0.467,0.304-0.85,0.739-1.377,1.207
	C354.207,319.202,365.027,330.846,373.154,345.616z M220.438,344.53c1.561-2.482,2.947-4.812,4.461-7.057
	c1.467-2.175,2.979-4.329,4.626-6.369c1.708-2.115,3.558-4.122,5.425-6.102c1.867-1.978,3.766-3.936,5.775-5.767
	c1.937-1.766,4.003-3.395,6.068-5.015c2.098-1.645,4.494-2.892,6.648-4.722c-3.943-2.938-8.136-4.96-12.409-6.812
	c-4.812-2.084-9.696-3.98-14.817-5.199c-1.792-0.426-3.595-0.827-5.356-1.359c-5.506-1.663-11.174-2.461-16.85-3.226
	c-0.254-0.034-0.532,0.114-0.968,0.217c0,0.592-0.033,1.157,0.007,1.716c0.07,0.969,0.046,1.974,0.307,2.894
	c0.931,3.274,1.184,6.675,2.069,9.972c1.03,3.835,1.784,7.748,3.019,11.534c0.481,1.476,1.069,2.919,1.519,4.404
	c2.017,6.655,5.149,12.777,8.837,18.637C219.253,343.001,219.804,343.665,220.438,344.53z"/>
<path fill-rule="evenodd" clip-rule="evenodd" fill="none" stroke="#000000" stroke-width="17" stroke-miterlimit="10" d="
	M532.496,335.381c0,129.159-104.699,233.859-233.858,233.859c-129.155,0-233.858-104.7-233.858-233.859
	c0-129.156,104.703-233.858,233.858-233.858C427.797,101.523,532.496,206.226,532.496,335.381z"/>
</svg>
